<svg width="82" height="82" viewBox="0 0 82 82" fill="none" xmlns="http://www.w3.org/2000/svg">
<path d="M75.1666 41C75.1666 59.8697 59.8696 75.1667 40.9999 75.1667C22.1302 75.1667 6.83325 59.8697 6.83325 41C6.83325 22.1303 22.1302 6.83334 40.9999 6.83334C59.8696 6.83334 75.1666 22.1303 75.1666 41Z" fill="#5D0E41"/>
<path fill-rule="evenodd" clip-rule="evenodd" d="M57.0826 30.0424C58.4169 31.3767 58.4169 33.54 57.0826 34.8743L39.9993 51.9576C38.665 53.2919 36.5017 53.2919 35.1674 51.9576L26.6257 43.4159C25.2914 42.0816 25.2914 39.9183 26.6257 38.584C27.96 37.2498 30.1233 37.2498 31.4576 38.584L37.5833 44.7098L52.2507 30.0424C53.585 28.7081 55.7483 28.7081 57.0826 30.0424Z" fill="white"/>
</svg>
