<svg width="72" height="75" viewBox="0 0 72 75" fill="none" xmlns="http://www.w3.org/2000/svg">
<path d="M48.2298 50.2825C52.8869 49.3165 57.1128 47.6416 60.3979 45.1828C66.0079 40.9838 68.875 34.4986 68.875 28.0912C68.875 23.5964 67.1675 19.3999 64.2112 15.8456C62.564 13.865 67.3822 0.84101 63.1012 2.83125C58.8203 4.8215 52.5434 7.47319 49.2532 6.50096C45.7306 5.46005 41.892 4.88818 37.875 4.88818C34.3859 4.88818 31.0316 5.3196 27.9019 6.11506C23.3527 7.27129 19.002 4.70819 14.625 2.83125C10.2479 0.954318 12.6363 14.4851 11.3363 16.0925C8.50481 19.5935 6.875 23.6999 6.875 28.0912C6.875 34.4986 10.3448 40.9838 15.9547 45.1828C19.6918 47.9798 24.3784 49.7623 29.6214 50.641" stroke="white" stroke-width="4.5" stroke-linecap="round" stroke-linejoin="round"/>
<path d="M29.6217 50.6412C27.3772 53.107 26.2548 55.4481 26.2548 57.6652C26.2548 59.8821 26.2548 63.3562 26.2548 72.3751" stroke="white" stroke-width="4.5" stroke-linecap="round" stroke-linejoin="round"/>
<path d="M48.2295 50.2825C50.3565 53.0684 51.42 55.5699 51.42 57.7867C51.42 60.0038 51.42 63.4377 51.42 72.3751" stroke="white" stroke-width="4.5" stroke-linecap="round" stroke-linejoin="round"/>
<path d="M3 51.7119C4.74156 51.9244 6.03323 52.7236 6.875 54.1094C8.13765 56.1878 12.8313 63.8984 18.1611 63.8984C21.7145 63.8984 24.4123 63.8984 26.2546 63.8984" stroke="white" stroke-width="4.5" stroke-linecap="round" stroke-linejoin="round"/>
</svg>
