<svg width="544" height="74" viewBox="0 0 544 74" fill="none" xmlns="http://www.w3.org/2000/svg">
<path d="M167.136 17.6364V24.4546H140V17.6364H167.136ZM147.909 5.09092H155.955V55C155.955 57.2727 156.284 58.9773 156.943 60.1136C157.625 61.2273 158.489 61.9773 159.534 62.3636C160.602 62.7273 161.727 62.9091 162.909 62.9091C163.795 62.9091 164.523 62.8636 165.091 62.7727C165.659 62.6591 166.114 62.5682 166.455 62.5L168.091 69.7273C167.545 69.9318 166.784 70.1364 165.807 70.3409C164.83 70.5682 163.591 70.6818 162.091 70.6818C159.818 70.6818 157.591 70.1932 155.409 69.2159C153.25 68.2386 151.455 66.75 150.023 64.75C148.614 62.75 147.909 60.2273 147.909 57.1818V5.09092Z" fill="#00224D"/>
<path d="M181.455 70V0.181824H205.045C210.5 0.181824 214.977 1.11364 218.477 2.97728C221.977 4.81819 224.568 7.35228 226.25 10.5796C227.932 13.8068 228.773 17.4773 228.773 21.5909C228.773 25.7046 227.932 29.3523 226.25 32.5341C224.568 35.7159 221.989 38.2159 218.511 40.0341C215.034 41.8296 210.591 42.7273 205.182 42.7273H186.091V35.0909H204.909C208.636 35.0909 211.636 34.5455 213.909 33.4546C216.205 32.3636 217.864 30.8182 218.886 28.8182C219.932 26.7955 220.455 24.3864 220.455 21.5909C220.455 18.7955 219.932 16.3523 218.886 14.2614C217.841 12.1705 216.17 10.5568 213.875 9.42046C211.58 8.26137 208.545 7.68182 204.773 7.68182H189.909V70H181.455ZM214.318 38.6364L231.5 70H221.682L204.773 38.6364H214.318Z" fill="#00224D"/>
<path d="M263.162 71.0909C258.116 71.0909 253.764 69.9773 250.105 67.75C246.469 65.5 243.662 62.3636 241.685 58.3409C239.73 54.2955 238.753 49.5909 238.753 44.2273C238.753 38.8636 239.73 34.1364 241.685 30.0455C243.662 25.9318 246.412 22.7273 249.935 20.4318C253.48 18.1136 257.616 16.9546 262.344 16.9546C265.071 16.9546 267.764 17.4091 270.423 18.3182C273.082 19.2273 275.503 20.7046 277.685 22.75C279.866 24.7727 281.605 27.4546 282.901 30.7955C284.196 34.1364 284.844 38.25 284.844 43.1364V46.5455H244.48V39.5909H276.662C276.662 36.6364 276.071 34 274.889 31.6818C273.73 29.3636 272.071 27.5341 269.912 26.1932C267.776 24.8523 265.253 24.1818 262.344 24.1818C259.139 24.1818 256.366 24.9773 254.026 26.5682C251.707 28.1364 249.923 30.1818 248.673 32.7046C247.423 35.2273 246.798 37.9318 246.798 40.8182V45.4546C246.798 49.4091 247.48 52.7614 248.844 55.5114C250.23 58.2386 252.151 60.3182 254.605 61.75C257.06 63.1591 259.912 63.8636 263.162 63.8636C265.276 63.8636 267.185 63.5682 268.889 62.9773C270.616 62.3636 272.105 61.4546 273.355 60.25C274.605 59.0227 275.571 57.5 276.253 55.6818L284.026 57.8636C283.207 60.5 281.832 62.8182 279.901 64.8182C277.969 66.7955 275.582 68.3409 272.741 69.4546C269.901 70.5455 266.707 71.0909 263.162 71.0909Z" fill="#00224D"/>
<path d="M338.307 17.6364L318.943 70H310.761L291.398 17.6364H300.125L314.58 59.3636H315.125L329.58 17.6364H338.307Z" fill="#00224D"/>
<path d="M348.926 70V17.6364H356.972V70H348.926Z" fill="#00224D"/>
<path d="M393.662 71.0909C388.616 71.0909 384.264 69.9773 380.605 67.75C376.969 65.5 374.162 62.3636 372.185 58.3409C370.23 54.2955 369.253 49.5909 369.253 44.2273C369.253 38.8636 370.23 34.1364 372.185 30.0455C374.162 25.9318 376.912 22.7273 380.435 20.4318C383.98 18.1136 388.116 16.9546 392.844 16.9546C395.571 16.9546 398.264 17.4091 400.923 18.3182C403.582 19.2273 406.003 20.7046 408.185 22.75C410.366 24.7727 412.105 27.4546 413.401 30.7955C414.696 34.1364 415.344 38.25 415.344 43.1364V46.5455H374.98V39.5909H407.162C407.162 36.6364 406.571 34 405.389 31.6818C404.23 29.3636 402.571 27.5341 400.412 26.1932C398.276 24.8523 395.753 24.1818 392.844 24.1818C389.639 24.1818 386.866 24.9773 384.526 26.5682C382.207 28.1364 380.423 30.1818 379.173 32.7046C377.923 35.2273 377.298 37.9318 377.298 40.8182V45.4546C377.298 49.4091 377.98 52.7614 379.344 55.5114C380.73 58.2386 382.651 60.3182 385.105 61.75C387.56 63.1591 390.412 63.8636 393.662 63.8636C395.776 63.8636 397.685 63.5682 399.389 62.9773C401.116 62.3636 402.605 61.4546 403.855 60.25C405.105 59.0227 406.071 57.5 406.753 55.6818L414.526 57.8636C413.707 60.5 412.332 62.8182 410.401 64.8182C408.469 66.7955 406.082 68.3409 403.241 69.4546C400.401 70.5455 397.207 71.0909 393.662 71.0909Z" fill="#00224D"/>
<path d="M439.446 70L423.491 17.6364H431.946L443.264 57.7273H443.81L454.991 17.6364H463.582L474.628 57.5909H475.173L486.491 17.6364H494.946L478.991 70H471.082L459.628 29.7727H458.81L447.355 70H439.446Z" fill="#00224D"/>
<path d="M542.673 29.3636L535.446 31.4091C534.991 30.2045 534.321 29.0341 533.435 27.8977C532.571 26.7386 531.389 25.7841 529.889 25.0341C528.389 24.2841 526.469 23.9091 524.128 23.9091C520.923 23.9091 518.253 24.6477 516.116 26.125C514.003 27.5796 512.946 29.4318 512.946 31.6818C512.946 33.6818 513.673 35.2614 515.128 36.4205C516.582 37.5796 518.855 38.5455 521.946 39.3182L529.719 41.2273C534.401 42.3636 537.889 44.1023 540.185 46.4432C542.48 48.7614 543.628 51.75 543.628 55.4091C543.628 58.4091 542.764 61.0909 541.037 63.4546C539.332 65.8182 536.946 67.6818 533.878 69.0455C530.81 70.4091 527.241 71.0909 523.173 71.0909C517.832 71.0909 513.412 69.9318 509.912 67.6136C506.412 65.2955 504.196 61.9091 503.264 57.4546L510.901 55.5455C511.628 58.3636 513.003 60.4773 515.026 61.8864C517.071 63.2955 519.741 64 523.037 64C526.787 64 529.764 63.2046 531.969 61.6136C534.196 60 535.31 58.0682 535.31 55.8182C535.31 54 534.673 52.4773 533.401 51.25C532.128 50 530.173 49.0682 527.537 48.4546L518.81 46.4091C514.014 45.2727 510.491 43.5114 508.241 41.125C506.014 38.7159 504.901 35.7046 504.901 32.0909C504.901 29.1364 505.73 26.5227 507.389 24.25C509.071 21.9773 511.355 20.1932 514.241 18.8977C517.151 17.6023 520.446 16.9546 524.128 16.9546C529.31 16.9546 533.378 18.0909 536.332 20.3636C539.31 22.6364 541.423 25.6364 542.673 29.3636Z" fill="#00224D"/>
<path d="M348.96 9.30682C350.097 10.375 351.449 10.9091 353.017 10.9091C354.585 10.9091 355.926 10.375 357.04 9.30682C358.176 8.23864 358.744 6.95455 358.744 5.45455C358.744 3.95455 358.176 2.67045 357.04 1.60227C355.926 0.53409 354.585 0 353.017 0C351.449 0 350.097 0.53409 348.96 1.60227C347.847 2.67045 347.29 3.95455 347.29 5.45455C347.29 6.95455 347.847 8.23864 348.96 9.30682Z" fill="#FF204E"/>
<path d="M76.7165 63.5612C79.1958 62.1268 81.1298 60.0268 82.5185 57.2614C83.7771 54.7533 84.4651 51.7406 84.5825 48.2234H46.1791V44.7812C46.1791 39.8464 46.8333 35.692 48.1417 32.3179C49.45 28.9438 51.2058 26.2298 53.409 24.176C55.6122 22.1215 58.0566 20.6352 60.7424 19.7172C63.4275 18.7991 66.1471 18.3401 68.9012 18.3401C73.6753 18.3401 77.847 19.5048 81.4163 21.8341C84.3649 23.7589 86.7731 26.3023 88.6408 29.4643C90.5084 26.3023 92.9163 23.7589 95.8644 21.834C99.4337 19.5047 103.605 18.3401 108.379 18.3401C111.134 18.3401 113.854 18.7991 116.539 19.7171C119.224 20.6352 121.669 22.1214 123.872 24.1759C126.076 26.2297 127.832 28.9437 129.14 32.3178C130.448 35.692 131.102 39.8464 131.102 44.7811V48.2233H92.6982C92.8157 51.7406 93.504 54.7532 94.7631 57.2613C96.1518 60.0268 98.0855 62.1267 100.564 63.5612C103.043 64.9957 105.923 65.7129 109.206 65.7129C111.34 65.7129 113.274 65.4089 115.007 64.8008C116.739 64.1928 118.237 63.2747 119.5 62.0467C120.762 60.8187 121.738 59.2866 122.426 57.4505L130.276 59.654C129.45 62.3165 128.061 64.6518 126.11 66.6598C124.159 68.6685 121.749 70.2294 118.88 71.3426C116.011 72.4558 112.786 73.0124 109.206 73.0124C104.111 73.0124 99.7208 71.882 96.0367 69.621C92.9909 67.7516 90.5256 65.2623 88.6408 62.1533C86.7559 65.2623 84.2903 67.7516 81.244 69.6211C77.5606 71.882 73.1711 73.0125 68.0757 73.0125C67.782 73.0125 67.4906 73.0087 67.2017 73.0012H46.1768V72.9941H0.0131338V72.5343H0V0H8.31676V65.7496H46.1768V65.7424H68.0532C68.0607 65.7326 68.0682 65.7228 68.0757 65.713C71.3576 65.713 74.2379 64.9957 76.7165 63.5612ZM84.5619 41.2006C84.4073 38.7474 83.7892 36.4291 82.7077 34.2456C81.4451 31.6979 79.6376 29.6265 77.2851 28.0314C74.9325 26.4362 72.1379 25.6387 68.9012 25.6387C65.9639 25.6387 63.4105 26.3158 61.2412 27.6699C59.0726 29.0241 57.3971 30.8718 56.2149 33.213C55.0326 35.5543 54.4415 38.2168 54.4415 41.2006H84.5619ZM122.839 41.2005C122.839 38.2167 122.248 35.5542 121.066 33.213C119.884 30.8717 118.209 29.024 116.039 27.6699C113.871 26.3157 111.317 25.6386 108.379 25.6386C105.143 25.6386 102.349 26.4362 99.9956 28.0313C97.6431 29.6265 95.8359 31.6979 94.5739 34.2455C93.492 36.4289 92.8736 38.7472 92.7188 41.2005H122.839Z" fill="#00224D"/>
<mask id="mask0_13_16" style="mask-type:alpha" maskUnits="userSpaceOnUse" x="46" y="18" width="85" height="55">
<rect x="46" y="18" width="85" height="55" fill="#D9D9D9"/>
</mask>
<g mask="url(#mask0_13_16)">
<path d="M76.7165 63.5612C79.1958 62.1268 81.1298 60.0268 82.5185 57.2614C83.7771 54.7533 84.4651 51.7406 84.5825 48.2234H46.1791V44.7812C46.1791 39.8464 46.8333 35.692 48.1417 32.3179C49.45 28.9438 51.2058 26.2298 53.409 24.176C55.6122 22.1215 58.0566 20.6352 60.7424 19.7172C63.4275 18.7991 66.1471 18.3401 68.9012 18.3401C73.6753 18.3401 77.847 19.5048 81.4163 21.8341C84.3649 23.7589 86.7731 26.3023 88.6408 29.4643C90.5084 26.3023 92.9163 23.7589 95.8644 21.834C99.4337 19.5047 103.605 18.3401 108.379 18.3401C111.134 18.3401 113.854 18.7991 116.539 19.7171C119.224 20.6352 121.669 22.1214 123.872 24.1759C126.076 26.2297 127.832 28.9437 129.14 32.3178C130.448 35.692 131.102 39.8464 131.102 44.7811V48.2233H92.6982C92.8157 51.7406 93.504 54.7532 94.7631 57.2613C96.1518 60.0268 98.0855 62.1267 100.564 63.5612C103.043 64.9957 105.923 65.7129 109.206 65.7129C111.34 65.7129 113.274 65.4089 115.007 64.8008C116.739 64.1928 118.237 63.2747 119.5 62.0467C120.762 60.8187 121.738 59.2866 122.426 57.4505L130.276 59.654C129.45 62.3165 128.061 64.6518 126.11 66.6598C124.159 68.6685 121.749 70.2294 118.88 71.3426C116.011 72.4558 112.786 73.0124 109.206 73.0124C104.111 73.0124 99.7208 71.882 96.0367 69.621C92.9909 67.7516 90.5256 65.2623 88.6408 62.1533C86.7559 65.2623 84.2903 67.7516 81.244 69.6211C77.5606 71.882 73.1711 73.0125 68.0757 73.0125C67.782 73.0125 67.4906 73.0087 67.2017 73.0012H46.1768V72.9941H0.0131338V72.5343H0V0H8.31676V65.7496H46.1768V65.7424H68.0532C68.0607 65.7326 68.0682 65.7228 68.0757 65.713C71.3576 65.713 74.2379 64.9957 76.7165 63.5612ZM84.5619 41.2006C84.4073 38.7474 83.7892 36.4291 82.7077 34.2456C81.4451 31.6979 79.6376 29.6265 77.2851 28.0314C74.9325 26.4362 72.1379 25.6387 68.9012 25.6387C65.9639 25.6387 63.4105 26.3158 61.2412 27.6699C59.0726 29.0241 57.3971 30.8718 56.2149 33.213C55.0326 35.5543 54.4415 38.2168 54.4415 41.2006H84.5619ZM122.839 41.2005C122.839 38.2167 122.248 35.5542 121.066 33.213C119.884 30.8717 118.209 29.024 116.039 27.6699C113.871 26.3157 111.317 25.6386 108.379 25.6386C105.143 25.6386 102.349 26.4362 99.9956 28.0313C97.6431 29.6265 95.8359 31.6979 94.5739 34.2455C93.492 36.4289 92.8736 38.7472 92.7188 41.2005H122.839Z" fill="#FF204E"/>
</g>
</svg>
